<?xml version="1.0" encoding="UTF-8"?>
<svg id="Capa_1" xmlns="http://www.w3.org/2000/svg" version="1.1" viewBox="0 0 807.66 191.97">
  <!-- Generator: Adobe Illustrator 29.5.1, SVG Export Plug-In . SVG Version: 2.1.0 Build 141)  -->
  <path d="M807.66,154.41v37.57H0v-37.57c25.2-11.74,86.18-108.95,105.36-109.79,9.55-.42,35.44,23.25,45.14,29.21,10.84,6.65,26.12,11.7,37.15,19.2,18.55,12.6,28.12,29.95,43.98,43.67s44.14,29.69,63.97,38.29c7.43,3.22,20.76,10.89,27.84,7.59,25.78-23.15,57.3-39.57,80.41-65.71,7.68-8.69,26.08-39.54,37.54-39.54,5.83,0,39.23,28.22,44.93,34.23,14.14,14.93,23.24,34.83,37.72,49.93,7.57,7.89,28.52,26,38.87,27.89,12.75,2.34,54.65-7.28,65.97-14.45l75.58-81.07c17.7-2.92,47.99,34.94,64.19,44.24,12.33,7.09,26.79,9.01,39.01,16.3Z"/>
  <path d="M577.59.52c40.9-5.48,71.8,33.29,59.56,72.08-18.44,58.39-115.06,44.76-104.79-29.66,2.73-19.77,25.75-39.81,45.23-42.42Z"/>
</svg>