<?xml version="1.0" encoding="UTF-8"?>
<svg id="Capa_1" xmlns="http://www.w3.org/2000/svg" version="1.1" viewBox="0 0 1161.25 1200">
  <!-- Generator: Adobe Illustrator 29.5.1, SVG Export Plug-In . SVG Version: 2.1.0 Build 141)  -->
  <path d="M1155.56,646.87c-43.97-11.67-85.18,18.57-129.85,22.72-30.89,2.87-197.87,11.06-185.15-39.48,87.92-51.99,194.36-85.01,268.87-160.72,42.18-42.85,5.85-46.94-34.62-27.34-54.48,26.38-71.02,59.03-146.17,79.51-17.88,4.87-90.02,26.48-96.13,5.57,7.21-36.17,49.86-58.84,72.59-87.35,27.6-34.61,119.62-170.39,127.98-206.9,2.8-12.25,4.46-24.22,3.2-36.77-16.76-3.03-22.38,4.23-32.97,14.27-60.92,57.76-102.04,176.41-183.65,216.76-71.71,35.46-17.75-75.88-11.19-105.82,12.04-54.91,55.44-253.45,27.91-292.96l-32.94-7c-13.12,115.8-17.67,251.39-98.37,342.03-25.79.09-28.56-140.89-34.74-168.97-8.29-37.61-44.27-145.91-64.72-175.53-20.32-29.44-37.81-23.84-34.93,12.53,2.78,35.09,38.5,84.96,43.27,139.29,2.4,27.29,7.24,134.96-14.36,145.94-13.48,8.06-25.55-9.94-32.36-19.16-38.4-51.96-62.92-119.98-109.6-174.31-21.1-24.56-58.34-69.18-91.06-65.39-11.16,9.86,92.82,168.82,103.24,191.54,6.45,14.05,39.81,88,16.7,92.37-16.17,3.06-191.26-124.81-228.89-142.27-28.12-13.05-93.54-43.79-120.15-25.23-8.4,1.9-4.11,9.6-.49,14.81,15.39,22.15,115.24,64.49,143.26,82.44,23.3,14.92,140.03,100.15,114.87,135.13-13.51,18.77-48.6-8.96-63.23-12.06-88.62-18.78-215.09-24.76-303.92-9.2-37.61,6.59-37.16,31.23.63,35.7,62.07,7.33,122.2-5.57,186.75,9.99,21.29,5.13,153.03,50.21,102.24,76.49-91.48,21.56-218.17,32.02-292.87,92.98-9.7,7.92-22.99,20.29-11.24,32.45,90.66-1.96,184.48-62.21,277-51.32,10.82,1.27,18.57.7,25.12,11.43,5.3,26.72-60.74,52.56-79.43,66-67.76,48.71-113.83,98.72-168.15,161.12l.07,31.1c18.08,19.58,82.51-59.47,94.7-68.86,21.28-16.4,73.36-53.98,95.37-64.98,27.49-13.73,56.4-21.22,86.49-26.27,5.36,42.82-35.94,71.13-56.75,106.98-35.69,61.46-86.38,176.49-89.19,246.32-.54,13.35-.84,24.13,11.43,32.51,25.39,5.11,58.74-103.7,70.07-126.35,17.83-35.63,80.44-160.25,120.2-163.95l16.11,11.17c-18.57,129.73-36.46,249.97,22.9,373.78,32.87-26.66,6.08-84.5,6.56-120.08.54-40.37,10.3-134.69,28.26-168.97,6.58-12.56,16.75-21.76,26.97-31.14,7.8-.03,20.57,28.35,29.71,55.56,1.7,11.22,3.26,22.55,7.2,33.06,1.13,3.01,2.34,6.09,3.55,9.17.12,1.31.18,2.48.14,3.44l1.28.14c10.85,26.99,24.59,55.76,38.79,79.94,13.69,23.22,109.35,170.65,125.44,167.23,39.02-8.45-35.82-100.61-46.01-120.93-11.22-22.33-33.73-77.19-47.88-118.63l.59.06c-3.03-8.69-6.43-18.21-9.37-28.08-1.35-4.95-2.43-9.39-3.05-12.94-7.08-40.17-1.9-55,9.55-55.59,6.94.34,16.12,5.99,26.23,14.37l50.44,50.52c8.3,8.86,15.65,16.51,21.09,21.12,21.79,18.48,185.3,120.66,210.12,119.42.8-.04,1.45-.19,1.96-.45,3.86-1.97,14.78-11.14,9.97-16.6-22.86-39.31-73.39-47.1-107.89-75.71-10.92-9.06-42.76-37.49-69.81-68.23-17.61-22.99-36.52-45.84-42.8-73.22-.02-7.34,2.83-13.37,9.59-17.41,21.11,5.39,42.15,12.01,63.34,19.07l-.62-.5c5.02,3.41,10.18,6.56,15.66,9.05,29.58,13.42,65,26.43,96.46,34.59,26.1,6.76,198.03,43.38,206.92,29.59,21.65-33.57-96.44-45.81-118.01-52.98-33.37-11.09-128.44-52-155.05-70.64-107.51-75.29,59.9-55.01,101.89-58.44,29.39-2.4,224.1-44.45,229.6-61.77,1.31-4.11,2.54-18.35-4.69-18.77Z"/>
</svg>